# xmcd
#
# Track frame offsets: 
#        150
#        12360
#        24385
#        44317
#        59904
#        72044
#        83989
#        101629
#        115198
#        129200
#        146471
#        160799
#        171798
#        186850
#        205395
#
# Disc length: 3026 seconds
#
# Revision: 0
# Processed by: cddbd v1.5.2PL0 Copyright (c) Steve Scherf et al.
# Submitted via: ExactAudioCopyFreeDBPlugin 1.0
#
DISCID=cc0bd00f
DTITLE=Various Artist - CD Tex June 2003
DYEAR=2003
DGENRE=Country
TTITLE0=Don Roberts - Swingin' Til We Can't See Strait (Live version)
TTITLE1=Don Roberts - Swingin' Til We Can't See Strait
TTITLE2=Jerry Jeff Walker - Texas On My Mind
TTITLE3=Willie and Bobbie Nelson - I'll Fly Away
TTITLE4=Billy Joe Shaver - White Freight Liner Blues
TTITLE5=Lonnie Spiker - It's Just A Matter Of Time
TTITLE6=Django Walker - College Life
TTITLE7=Willie Nelson, Billy Joe Shaver and Waylon Jennings - Honky Tonk
TTITLE7=Heros Like Me
TTITLE8=Bobby Flores - One More Time
TTITLE9=The Scott Rotge Band - Deadbolt
TTITLE10=Tommy Alverson - Follow Your Heart
TTITLE11=Keith Norris - Hurt Me All The Time
TTITLE12=Cerrito - Let's Be Lonely Together
TTITLE13=Bill Wence - California Callin'
TTITLE14=Johnny Bush - Live medley - Drivin' Nails In My Coffin, From 
TTITLE14=Tennessee To Texas, John Henry
EXTD=
EXTT0=
EXTT1=
EXTT2=
EXTT3=
EXTT4=
EXTT5=
EXTT6=
EXTT7=
EXTT8=
EXTT9=
EXTT10=
EXTT11=
EXTT12=
EXTT13=
EXTT14=
PLAYORDER=
